<?xml version="1.0" encoding="UTF-8"?>
<svg version="1.1" xmlns="http://www.w3.org/2000/svg" width="512" height="512">
<path d="M0 0 C0.6707959 0.22236328 1.3415918 0.44472656 2.03271484 0.67382812 C36.76655411 12.34175107 66.90504455 32.59092405 93 58 C93.93585938 58.89589844 94.87171875 59.79179688 95.8359375 60.71484375 C101.71672105 66.44182219 106.94915453 72.53420137 112 79 C113.05960937 80.33417969 113.05960937 80.33417969 114.140625 81.6953125 C153.2139257 132.15327996 170.41657761 195.78778352 163 259 C155.70774988 314.94067377 133.74855011 363.93316057 95 405 C94.19820313 405.8559375 93.39640625 406.711875 92.5703125 407.59375 C85.92476507 414.47897291 78.63217312 420.26907997 71 426 C70.4539209 426.41749512 69.9078418 426.83499023 69.34521484 427.26513672 C29.46729956 457.66496267 -21.09024124 473.81900777 -71 475 C-72.21171875 475.03996094 -73.4234375 475.07992188 -74.671875 475.12109375 C-140.37835607 476.279818 -203.49816914 452.38770208 -251 407 C-251.87527344 406.16597656 -252.75054687 405.33195312 -253.65234375 404.47265625 C-267.61987784 390.84946814 -279.3303179 374.7736351 -288.95898438 357.83105469 C-289.95431381 356.08035798 -290.96890522 354.34065444 -291.984375 352.6015625 C-323.24537374 296.95698474 -330.95616653 226.64492275 -314.24609375 165.38671875 C-304.2321746 130.50985349 -287.22702479 98.09258686 -263 71 C-262.25363281 70.1440625 -261.50726563 69.288125 -260.73828125 68.40625 C-251.58688094 58.02261446 -241.91440166 48.52593149 -231 40 C-230.02804688 39.21109375 -229.05609375 38.4221875 -228.0546875 37.609375 C-207.27768845 21.05026298 -183.08995107 8.54227986 -158 0 C-156.78908691 -0.41523926 -156.78908691 -0.41523926 -155.55371094 -0.83886719 C-105.26603354 -17.76476429 -50.12738264 -16.95010675 0 0 Z " fill="#2C8BFE" transform="translate(335,25)"/>
<path d="M0 0 C8.91 0 17.82 0 27 0 C27.99 3.465 27.99 3.465 29 7 C31.61197031 9.61197031 33.4360367 9.23332229 36.99177551 9.25080872 C37.81562241 9.24667465 38.6394693 9.24254059 39.48828125 9.23828125 C41.24545021 9.25372582 43.00261178 9.2700312 44.75976562 9.28710938 C47.51977923 9.30342641 50.27924974 9.31258633 53.03930664 9.30541992 C66.94137312 9.291577 79.73418475 9.79241244 90.29296875 20.12890625 C99.31295689 30.01580401 102.63136185 39.68165641 102.4699707 53.06494141 C102.4721611 54.21586273 102.4743515 55.36678406 102.47660828 56.55258179 C102.47890159 60.31921062 102.45277278 64.08503927 102.42578125 67.8515625 C102.42085385 70.4790319 102.41755725 73.10650482 102.41581726 75.73397827 C102.40939894 81.21940428 102.38824983 86.70460487 102.35668945 92.18994141 C102.31619602 99.2372867 102.29896726 106.28448641 102.28938007 113.33193398 C102.28020962 120.04683393 102.25954192 126.76169095 102.23828125 133.4765625 C102.2348855 134.76382862 102.23148975 136.05109474 102.2279911 137.37736893 C102.21647978 140.99463221 102.19797381 144.61178464 102.17700195 148.22900391 C102.17431305 149.31151428 102.17162415 150.39402466 102.16885376 151.50933838 C102.16169846 152.48768646 102.15454315 153.46603455 102.14717102 154.47402954 C102.14289754 155.32899332 102.13862406 156.1839571 102.13422108 157.06482887 C102 159 102 159 101 160 C98.90084598 160.10346824 96.79815292 160.13523316 94.69645691 160.14044189 C94.03028313 160.14341302 93.36410936 160.14638414 92.6777485 160.1494453 C90.42862651 160.15816866 88.17955753 160.15964366 85.93041992 160.16113281 C84.32414637 160.16575882 82.71787393 160.17078318 81.11160278 160.17617798 C76.73289717 160.18933431 72.35420692 160.19575446 67.97548461 160.20018864 C65.23777226 160.20311719 62.50006413 160.20722181 59.7623539 160.21169281 C51.19159247 160.22538289 42.62084064 160.23503931 34.05006903 160.2388947 C24.16802006 160.24336432 14.28611016 160.26085471 4.40410346 160.2898953 C-3.23765748 160.31156877 -10.87937947 160.32160217 -18.52117079 160.32293582 C-23.08232728 160.32398079 -27.64335329 160.32982142 -32.20447731 160.34775543 C-36.50464135 160.36433178 -40.80457827 160.3663456 -45.10476303 160.35761642 C-46.6751981 160.35685085 -48.24564584 160.36112478 -49.81604958 160.37107468 C-64.06694111 160.45599751 -76.97142809 159.04107185 -88 149.21875 C-97.83682306 138.87312575 -99.16004869 127.23798072 -99.11352539 113.64868164 C-99.11367142 112.52599884 -99.11381744 111.40331604 -99.1139679 110.24661255 C-99.11327354 106.55110718 -99.10550347 102.85565277 -99.09765625 99.16015625 C-99.09579038 96.59183276 -99.09436727 94.02350891 -99.09336853 91.45518494 C-99.0899459 85.39573647 -99.08207154 79.3363089 -99.07201904 73.27686828 C-99.06081862 66.37478418 -99.05533757 59.47269919 -99.05032361 52.57060826 C-99.03988781 38.38039577 -99.02231291 24.19019853 -99 10 C-97.80174591 9.99191315 -96.60349182 9.98382629 -95.368927 9.97549438 C-84.0968865 9.89813406 -72.82496821 9.81042071 -61.55308723 9.71247292 C-55.75758398 9.6624479 -49.96209951 9.61611855 -44.16650391 9.578125 C-38.57731609 9.54135043 -32.98828311 9.49501214 -27.39922714 9.44193649 C-25.26293519 9.4233508 -23.12661 9.40825842 -20.99026871 9.39665604 C-18.00653346 9.37986483 -15.02315611 9.35084751 -12.03955078 9.31884766 C-11.14907043 9.31668747 -10.25859009 9.31452728 -9.34112549 9.31230164 C-4.68940177 9.46621334 -4.68940177 9.46621334 -1 7 C-0.67 4.69 -0.34 2.38 0 0 Z " fill="#F0F0F0" transform="translate(211,172)"/>
<path d="M0 0 C0.6707959 0.22236328 1.3415918 0.44472656 2.03271484 0.67382812 C36.76655411 12.34175107 66.90504455 32.59092405 93 58 C93.93585938 58.89589844 94.87171875 59.79179688 95.8359375 60.71484375 C101.71672105 66.44182219 106.94915453 72.53420137 112 79 C113.05960937 80.33417969 113.05960937 80.33417969 114.140625 81.6953125 C153.2139257 132.15327996 170.41657761 195.78778352 163 259 C155.70774988 314.94067377 133.74855011 363.93316057 95 405 C94.19820313 405.8559375 93.39640625 406.711875 92.5703125 407.59375 C85.92476507 414.47897291 78.63217312 420.26907997 71 426 C70.4539209 426.41749512 69.9078418 426.83499023 69.34521484 427.26513672 C29.46729956 457.66496267 -21.09024124 473.81900777 -71 475 C-72.21171875 475.03996094 -73.4234375 475.07992188 -74.671875 475.12109375 C-140.37835607 476.279818 -203.49816914 452.38770208 -251 407 C-251.87527344 406.16597656 -252.75054687 405.33195312 -253.65234375 404.47265625 C-267.61987784 390.84946814 -279.3303179 374.7736351 -288.95898438 357.83105469 C-289.95431381 356.08035798 -290.96890522 354.34065444 -291.984375 352.6015625 C-323.24537374 296.95698474 -330.95616653 226.64492275 -314.24609375 165.38671875 C-304.2321746 130.50985349 -287.22702479 98.09258686 -263 71 C-262.25363281 70.1440625 -261.50726563 69.288125 -260.73828125 68.40625 C-251.58688094 58.02261446 -241.91440166 48.52593149 -231 40 C-230.02804688 39.21109375 -229.05609375 38.4221875 -228.0546875 37.609375 C-207.27768845 21.05026298 -183.08995107 8.54227986 -158 0 C-156.78908691 -0.41523926 -156.78908691 -0.41523926 -155.55371094 -0.83886719 C-105.26603354 -17.76476429 -50.12738264 -16.95010675 0 0 Z M-114.90283203 5.6328125 C-117.98256078 6.17203392 -121.08313942 6.50853746 -124.1875 6.875 C-132.68437087 8.10599543 -140.81484714 10.46261942 -149 13 C-150.16378174 13.35723145 -150.16378174 13.35723145 -151.35107422 13.72167969 C-182.62100752 23.50120438 -211.5797583 39.94753547 -235.3515625 62.52734375 C-237.24682442 64.29681395 -239.13127883 65.95621589 -241.1328125 67.59375 C-243.4118079 69.5063674 -245.33439074 71.30913858 -247.25 73.5625 C-247.83523437 74.25085938 -248.42046875 74.93921875 -249.0234375 75.6484375 C-249.67570312 76.42445312 -250.32796875 77.20046875 -251 78 C-251.77601563 78.89976563 -252.55203125 79.79953125 -253.3515625 80.7265625 C-284.35450631 117.10462969 -301.47349925 162.28048467 -306.7175293 209.48974609 C-306.89503932 211.06723797 -307.08480592 212.64344811 -307.29223633 214.21728516 C-314.52138519 270.90462699 -293.51180732 328.07957393 -259.84765625 372.86328125 C-234.59233282 405.24587387 -202.21082534 428.24372272 -165 445 C-164.31953613 445.31066406 -163.63907227 445.62132812 -162.93798828 445.94140625 C-113.85735619 467.87866043 -50.08872992 466.555944 -0.42724609 447.94140625 C17.57006458 440.96115782 35.31722692 432.31033564 51 421 C51.95777344 420.31550781 52.91554688 419.63101562 53.90234375 418.92578125 C72.20963628 405.52609408 89.28610072 390.00850152 102.75732422 371.68701172 C103.97864961 370.02898451 105.22377916 368.39123502 106.47265625 366.75390625 C119.06068227 349.99064387 128.19312424 331.38036004 136 312 C136.27424805 311.3292041 136.54849609 310.6584082 136.83105469 309.96728516 C156.2094862 261.99193749 153.49819822 206.54457587 138 158 C137.59442871 156.72697021 137.59442871 156.72697021 137.18066406 155.42822266 C127.35510344 125.38028725 111.2507632 97.57621827 89.47265625 74.6484375 C87.70205014 72.75195892 86.04120456 70.86595556 84.40234375 68.86328125 C82.50787745 66.60532385 80.73377948 64.70613579 78.5 62.8125 C77.81035156 62.22726563 77.12070312 61.64203125 76.41015625 61.0390625 C75.61480469 60.36617187 74.81945312 59.69328125 74 59 C73.04996094 58.16210938 72.09992188 57.32421875 71.12109375 56.4609375 C46.86636608 35.20530747 17.65557747 21.33627059 -13 12 C-14.10649902 11.66162109 -14.10649902 11.66162109 -15.23535156 11.31640625 C-25.32241634 8.2888027 -35.58907454 6.46710953 -46 5 C-47.16909912 4.82863525 -48.33819824 4.65727051 -49.54272461 4.48071289 C-59.28444697 3.11246519 -68.8565171 2.64029743 -78.6875 2.6875 C-79.42335327 2.68832581 -80.15920654 2.68915161 -80.9173584 2.69000244 C-92.43585776 2.71958816 -103.55721643 3.5380853 -114.90283203 5.6328125 Z " fill="#01050A" transform="translate(335,25)"/>
<path d="M0 0 C0.96005447 -0.00540298 1.92010895 -0.01080597 2.90925598 -0.01637268 C6.07181951 -0.02884554 9.23347031 -0.01238055 12.39599609 0.00561523 C14.59744311 0.00546024 16.79889041 0.00397117 19.00033569 0.00120544 C23.60858254 -0.00017782 28.21651786 0.01236973 32.82470703 0.03515625 C38.73422719 0.06357377 44.64323112 0.06079341 50.55278969 0.04806614 C55.09608377 0.04111579 59.63925827 0.04889037 64.18253708 0.06132317 C66.36185625 0.06584156 68.54118823 0.06617109 70.72050858 0.06225777 C73.76315962 0.05935107 76.80509552 0.07582586 79.84765625 0.09765625 C81.20052986 0.09090378 81.20052986 0.09090378 82.58073425 0.08401489 C88.66546387 0.15664072 88.66546387 0.15664072 91.85385132 1.90586853 C93.64032548 3.88487923 93.80695068 4.86110753 93.73193359 7.50170898 C93.73064453 8.18233398 93.72935547 8.86295898 93.72802734 9.56420898 C93.16651029 12.07333023 92.27600859 12.8901516 90.29443359 14.50170898 C88.42602253 14.87085247 88.42602253 14.87085247 86.28913879 14.86247253 C85.47725601 14.86659653 84.66537323 14.87072052 83.82888794 14.87496948 C82.94200287 14.86418365 82.0551178 14.85339783 81.14135742 14.84228516 C80.20457657 14.84272324 79.26779572 14.84316132 78.30262756 14.84361267 C75.20202897 14.84152037 72.10196913 14.8181683 69.00146484 14.79467773 C66.85341182 14.78908336 64.70535497 14.78481251 62.55729675 14.78181458 C56.90025284 14.77035339 51.24343954 14.74087511 45.58648682 14.70770264 C39.81533936 14.67702927 34.04415468 14.66331508 28.27294922 14.64819336 C16.94667595 14.61600675 5.62057394 14.56479491 -5.70556641 14.50170898 C-5.62151441 29.34049796 -5.52632558 44.17918101 -5.41803932 59.01781368 C-5.36801206 65.9083378 -5.32156843 72.79885062 -5.28369141 79.68945312 C-5.2471127 86.34200543 -5.20037498 92.99443695 -5.1475029 99.64688301 C-5.12900217 102.18210188 -5.11387835 104.71734777 -5.10222244 107.25260735 C-5.08528622 110.80964904 -5.05623279 114.36640436 -5.02441406 117.92333984 C-5.02225388 118.96631729 -5.02009369 120.00929474 -5.01786804 121.08387756 C-4.8864837 132.6176093 -2.53976863 143.64805669 5.14990234 152.68139648 C16.56783477 163.30166896 30.66692174 163.80094686 45.46264648 163.72875977 C47.08956902 163.72819486 48.71649207 163.72851376 50.34341431 163.72964478 C54.73741455 163.73021619 59.13130455 163.71849624 63.52527928 163.70449686 C68.12568804 163.69195413 72.72609961 163.69081622 77.32652283 163.68844604 C86.02795052 163.68224166 94.72932766 163.66584499 103.43073314 163.64574707 C113.34126614 163.62335558 123.25180162 163.61238647 133.16235363 163.6023562 C153.53974178 163.5814778 173.9170845 163.54632215 194.29443359 163.50170898 C194.3881249 148.30646781 194.45853377 133.11124 194.50168228 117.91577435 C194.52225483 110.85927832 194.55027287 103.80296241 194.59619141 96.74658203 C194.64051522 89.93198258 194.66359693 83.11757004 194.67394257 76.30283546 C194.68131184 73.70781326 194.69570216 71.11280084 194.71735382 68.51785851 C194.74654972 64.87252389 194.75038268 61.22795295 194.74853516 57.58251953 C194.77010681 55.98676086 194.77010681 55.98676086 194.79211426 54.35876465 C194.73330724 43.57850103 191.5724981 34.52171211 184.29443359 26.50170898 C183.80458984 25.95772461 183.31474609 25.41374023 182.81005859 24.85327148 C171.99904244 14.30985474 157.73962106 14.82444356 143.73193359 14.93920898 C141.00689861 14.95584122 138.28292842 14.96489924 135.55787659 14.94947815 C133.87618148 14.94023779 132.19425715 14.94923063 130.51280212 14.97911072 C126.91630937 14.96213656 124.74232708 14.82301159 121.77905273 12.69726562 C119.62669153 9.51420621 119.81723777 7.25110477 120.29443359 3.50170898 C121.81492292 1.48130929 122.69399592 0.61988261 125.19584656 0.12748718 C125.91118057 0.12811661 126.62651459 0.12874603 127.36352539 0.12939453 C128.17834885 0.12316574 128.9931723 0.11693695 129.83268738 0.11051941 C131.14986504 0.12433403 131.14986504 0.12433403 132.49365234 0.13842773 C133.85717583 0.13767998 133.85717583 0.13767998 135.24824524 0.13691711 C137.17406394 0.13925854 139.09988564 0.14899111 141.02563477 0.16552734 C143.95340849 0.18898048 146.88026253 0.18610596 149.80810547 0.17944336 C151.6824598 0.18502522 153.55681031 0.19213829 155.43115234 0.20092773 C156.29914963 0.20001633 157.16714691 0.19910492 158.06144714 0.19816589 C171.94688649 0.35751901 185.48915605 5.53595226 195.29443359 15.50170898 C202.88295522 24.73938965 208.64135518 34.22370143 208.29443359 46.50170898 C208.7757373 46.14568604 209.25704102 45.78966309 209.75292969 45.42285156 C220.79097125 37.26242666 231.87141489 29.16526468 243.01220703 21.14575195 C247.74410255 17.73704588 252.4688339 14.31840422 257.19506836 10.90185547 C258.57419642 9.90550841 259.95490942 8.91135054 261.33740234 7.91967773 C262.63687115 6.97814644 263.92617327 6.02241365 265.20458984 5.05249023 C269.95570871 1.49424885 273.4044253 0.13566327 279.29443359 0.50170898 C283.94309275 2.25786911 285.94673592 5.21116277 288.29443359 9.50170898 C288.85522715 12.62064936 288.83167447 15.6776936 288.79614258 18.84008789 C288.80424706 20.22164818 288.80424706 20.22164818 288.81251526 21.63111877 C288.82498368 24.6638337 288.8085264 27.69559598 288.79052734 30.72827148 C288.79068235 32.84003753 288.79217157 34.95180387 288.79493713 37.06356812 C288.79632019 41.48350643 288.78377626 45.90311987 288.76098633 50.32299805 C288.73256738 55.99038837 288.7353498 61.65724042 288.74807644 67.32467079 C288.75502747 71.68267421 288.74725146 76.04055299 288.73481941 80.3985405 C288.73030178 82.48854469 288.72997083 84.57856225 288.73388481 86.66856766 C288.73679223 89.5866979 288.72031351 92.50408301 288.69848633 95.42211914 C288.7052388 96.71888832 288.7052388 96.71888832 288.71212769 98.04185486 C288.66785483 101.60067706 288.63729229 103.88290685 286.89027405 107.03598022 C284.92158035 108.84416284 283.94372314 109.04184974 281.29443359 109.00170898 C280.61380859 109.01202148 279.93318359 109.02233398 279.23193359 109.03295898 C277.29443359 108.50170898 277.29443359 108.50170898 275.70036316 106.99603271 C273.69517688 103.43854034 273.85491651 100.03945624 273.86206055 96.0612793 C273.8518689 95.21213455 273.84167725 94.36298981 273.83117676 93.4881134 C273.80101605 90.68528675 273.79177614 87.88280169 273.78271484 85.07983398 C273.76587044 83.13497784 273.74772052 81.19013259 273.72831726 79.24530029 C273.68078529 74.12928677 273.65099656 69.01331745 273.62487793 63.89715576 C273.59508858 58.67540761 273.54855266 53.45381181 273.50341797 48.23217773 C273.41734845 37.98876779 273.35001934 27.74532652 273.29443359 17.50170898 C261.10047122 26.48192376 261.10047122 26.48192376 248.91552734 35.47436523 C241.12956164 41.2267696 233.32501476 46.95235554 225.48193359 52.62670898 C224.7470874 53.15917236 224.01224121 53.69163574 223.25512695 54.24023438 C211.80748184 62.50170898 211.80748184 62.50170898 209.29443359 62.50170898 C209.29443359 79.99170898 209.29443359 97.48170898 209.29443359 115.50170898 C210.94443359 116.16170898 212.59443359 116.82170898 214.29443359 117.50170898 C216.12109375 118.6081543 216.12109375 118.6081543 217.83349609 119.82983398 C218.81274048 120.52387329 218.81274048 120.52387329 219.81176758 121.23193359 C220.50729736 121.73345947 221.20282715 122.23498535 221.91943359 122.75170898 C222.65943604 123.27966064 223.39943848 123.8076123 224.16186523 124.3515625 C230.52129885 128.90523924 236.8181609 133.5440233 243.10620117 138.19555664 C248.75051818 142.37083652 254.41735926 146.51330448 260.10693359 150.62670898 C260.84161865 151.15901123 261.57630371 151.69131348 262.33325195 152.23974609 C266.26802888 155.07962857 270.23728596 157.83940488 274.29443359 160.50170898 C274.27348633 159.64416016 274.25253906 158.78661133 274.23095703 157.90307617 C274.16266833 154.71252426 274.11257846 151.52234553 274.07470703 148.33129883 C274.05462717 146.95194218 274.02735694 145.57267029 273.99267578 144.19360352 C273.94400542 142.2081392 273.92356941 140.22204644 273.90380859 138.23608398 C273.88286133 137.04208984 273.86191406 135.8480957 273.84033203 134.61791992 C274.29443359 131.50170898 274.29443359 131.50170898 276.13134766 129.11206055 C278.29443359 127.50170898 278.29443359 127.50170898 281.29443359 127.00170898 C285.0783723 127.63236544 286.01149412 128.44025419 288.29443359 131.50170898 C288.68057651 134.32139785 288.83280537 136.74141145 288.79052734 139.55639648 C288.79198257 140.33556427 288.79343781 141.11473206 288.79493713 141.91751099 C288.79327989 143.56329084 288.78173792 145.20908647 288.76098633 146.85473633 C288.73210953 149.36143616 288.74036432 151.86600913 288.75341797 154.37280273 C288.74717748 155.97567751 288.73878411 157.57854565 288.72802734 159.18139648 C288.73096298 159.92533661 288.73389862 160.66927673 288.73692322 161.4357605 C288.62884529 167.46315343 287.1889829 171.50190694 283.04443359 175.87670898 C279.32054173 178.07719054 277.58630875 178.20529508 273.29443359 177.50170898 C266.50783452 174.04452428 260.36112828 169.5096861 254.29443359 164.93920898 C252.630903 163.70021325 250.96682718 162.46194928 249.30224609 161.22436523 C248.46854492 160.60319824 247.63484375 159.98203125 246.77587891 159.34204102 C242.92935799 156.48931821 239.05299281 153.67871693 235.16943359 150.87670898 C234.07816162 150.08925293 234.07816162 150.08925293 232.96484375 149.28588867 C225.1147125 143.63462985 217.20912635 138.06203111 209.29443359 132.50170898 C209.31799927 133.99951904 209.31799927 133.99951904 209.34204102 135.52758789 C209.39655979 139.25113785 209.43086293 142.97465289 209.45922852 146.69848633 C209.47426535 148.30661971 209.49470031 149.91471242 209.52075195 151.52270508 C209.55736181 153.84132962 209.57421081 156.15940948 209.58740234 158.47827148 C209.6028862 159.19101227 209.61837006 159.90375305 209.63432312 160.63809204 C209.63625237 166.42987444 208.08499159 170.27894734 204.48193359 174.75170898 C199.89005021 178.42521569 194.95848974 178.7528208 189.24449158 178.7624054 C188.21537976 178.76814372 188.21537976 178.76814372 187.16547781 178.77399796 C184.87887544 178.7842721 182.59252682 178.78034645 180.3059082 178.77636719 C178.66111012 178.78071698 177.01631406 178.78590103 175.371521 178.79185486 C170.91037902 178.8052331 166.44932184 178.80582441 161.98816371 178.80329156 C158.2561181 178.8022202 154.52408952 178.80710988 150.79204756 178.81189698 C141.97845816 178.82298994 133.16491137 178.82343196 124.35131836 178.81738281 C115.28324475 178.81135415 106.21532674 178.8236263 97.14727968 178.84495288 C89.34488693 178.86262279 81.54254344 178.86856143 73.74013144 178.86531514 C69.08792586 178.86350936 64.43583105 178.86606682 59.78364372 178.88002968 C55.40132033 178.89268991 51.01923721 178.89058719 46.63691711 178.87761879 C45.03787718 178.87527048 43.43881991 178.87792423 41.83979988 178.88624191 C23.69823882 178.97372358 7.84080198 175.62820475 -5.70947266 162.72436523 C-17.08625584 150.05628376 -19.84230843 136.11748404 -19.88256836 119.69482422 C-19.88913956 118.52325775 -19.89571075 117.35169128 -19.90248108 116.1446228 C-19.92212952 112.28318207 -19.93385385 108.42177994 -19.94384766 104.56030273 C-19.94789945 103.22592715 -19.9520165 101.89155177 -19.95619774 100.55717659 C-19.97520806 94.29198732 -19.98945345 88.0268096 -19.99780971 81.7615971 C-20.00759769 74.54413484 -20.03397485 67.32697798 -20.0743106 60.10962337 C-20.10448413 54.51792471 -20.11927932 48.92631366 -20.12259072 43.33453518 C-20.12493777 39.99976059 -20.13583613 36.66557387 -20.1590519 33.33083916 C-20.18333715 29.61337581 -20.18249791 25.8967172 -20.17553711 22.17919922 C-20.18834717 21.08032883 -20.20115723 19.98145844 -20.21435547 18.84928894 C-20.17383357 12.91881094 -19.93101808 9.04156199 -15.70556641 4.50170898 C-10.6546493 0.02356036 -6.4288932 -0.06922442 0 0 Z " fill="#010203" transform="translate(117.70556640625,167.498291015625)"/>
<path d="M0 0 C0.00546844 1.64038239 0.00546844 1.64038239 0.01104736 3.31390381 C0.04797007 13.61413749 0.10571282 23.91407146 0.18390274 34.214077 C0.22343147 39.50959269 0.25559347 44.80494075 0.27099609 50.10058594 C0.28612713 55.21010394 0.32050938 60.31916124 0.36830902 65.42847443 C0.38315954 67.37888843 0.39104311 69.3293682 0.39188385 71.27983856 C0.39424424 74.00965131 0.42124826 76.73818123 0.45410156 79.46777344 C0.4490712 80.27625732 0.44404083 81.08474121 0.43885803 81.91772461 C0.50448569 85.43639337 0.69712007 87.58055207 2.78411865 90.47076416 C5.13024907 92.28148596 5.13024907 92.28148596 9 93 C9 98.94 9 104.88 9 111 C5.535 111.99 5.535 111.99 2 113 C0.57732138 115.84535725 0.78028131 118.36218552 0.68359375 121.5390625 C0.64169922 122.84101563 0.59980469 124.14296875 0.55664062 125.484375 C0.51682701 126.86458045 0.47711478 128.24478883 0.4375 129.625 C0.39430593 131.01303415 0.35069135 132.40105528 0.30664062 133.7890625 C0.20028 137.19260256 0.09825286 140.59621778 0 144 C-3.11065615 142.84241546 -5.72936718 141.66752269 -8.35546875 139.63671875 C-8.96825684 139.16886963 -9.58104492 138.70102051 -10.21240234 138.21899414 C-10.86418457 137.71360107 -11.5159668 137.20820801 -12.1875 136.6875 C-13.62001871 135.59494317 -15.0536539 134.50384901 -16.48828125 133.4140625 C-17.23029785 132.84977539 -17.97231445 132.28548828 -18.73681641 131.70410156 C-24.64017123 127.25907279 -30.67245185 122.98735227 -36.67382812 118.67626953 C-39.07437301 116.94640585 -41.46767699 115.20691522 -43.859375 113.46484375 C-44.65746582 112.88468506 -45.45555664 112.30452637 -46.27783203 111.70678711 C-47.79065965 110.6067062 -49.30215774 109.50479344 -50.81201172 108.40063477 C-51.50568848 107.89717529 -52.19936523 107.39371582 -52.9140625 106.875 C-53.8105249 106.22144531 -53.8105249 106.22144531 -54.72509766 105.5546875 C-56.87934702 103.98013272 -56.87934702 103.98013272 -58.99353027 103.12287903 C-61.39351678 101.95395242 -63.11933315 100.90459587 -65 99 C-66.25309895 95.09067771 -66.21654808 91.2803344 -66.203125 87.19921875 C-66.2202655 86.0488765 -66.23740601 84.89853424 -66.25506592 83.71333313 C-66.27801594 81.28173336 -66.28005618 78.84985899 -66.26269531 76.41821289 C-66.25006618 72.70694922 -66.34375174 69.00850741 -66.4453125 65.29882812 C-66.64417039 47.00762958 -66.64417039 47.00762958 -62.54125977 42.76464844 C-59.43426709 40.69971449 -56.47157722 39.34362002 -53 38 C-50.64404695 36.4987422 -50.64404695 36.4987422 -48.55859375 34.8671875 C-47.8828833 34.37847168 -47.20717285 33.88975586 -46.51098633 33.38623047 C-45.82673584 32.88752441 -45.14248535 32.38881836 -44.4375 31.875 C-43.68428467 31.32859863 -42.93106934 30.78219727 -42.1550293 30.21923828 C-32.63882562 23.30425466 -23.17759 16.31354078 -13.72314453 9.31445312 C-11.60854794 7.74932597 -9.49193815 6.18695776 -7.375 4.625 C-6.74118408 4.15433105 -6.10736816 3.68366211 -5.4543457 3.19873047 C-1.11338518 0 -1.11338518 0 0 0 Z " fill="#EFEFEF" transform="translate(392,184)"/>
<path d="M0 0 C0.66 0.33 1.32 0.66 2 1 C-7.57 10.57 -17.14 20.14 -27 30 C-27.66 29.67 -28.32 29.34 -29 29 C-19.97646579 18.70041045 -10.52151609 8.7885605 0 0 Z " fill="#0E2F52" transform="translate(101,67)"/>
</svg>
